# xmcd
#
# Track frame offsets: 
#        150
#        16607
#        33505
#        51814
#        63582
#        76510
#        92862
#        108142
#        123215
#        135220
#        147212
#        157917
#
# Disc length: 2330 seconds
#
# Revision: 3
# Processed by: cddbd v1.5.1PL2 Copyright (c) Steve Scherf et al.
# Submitted via: ExactAudioCopy v0.95a5
#
DISCID=8409180c
DTITLE=Various Artist - Country Jukebox
DYEAR=1992
DGENRE=Country
TTITLE0=Charle Daniels Band - The Devil Went Down To Georgia 
TTITLE1=Oak Ridge Boys - Elvira
TTITLE2=Shenandoah - Sunday In The South
TTITLE3=Highway 101 - Walkin' Talkin' Cryin' Barely Beatin' Heart 
TTITLE4=Exile - Give Me One More Chance
TTITLE5=Atlanta - Sweet Country Music 
TTITLE6=Forrester Sisters - Men 
TTITLE7=Asleep At The Wheel - Boogie Back To Texas 
TTITLE8=Gatlin Brothers - All The Gold In California
TTITLE9=Sweethearts Of The Rodeo - I Feel Fine 
TTITLE10=Statler Brothers - Flowers On The Wall
TTITLE11=Southern Pacific - New Shade Of Blue
EXTD=YEAR: 1992
EXTT0=
EXTT1=
EXTT2=
EXTT3=
EXTT4=
EXTT5=
EXTT6=
EXTT7=
EXTT8=
EXTT9=
EXTT10=
EXTT11=
PLAYORDER=
